<?xml version="1.0" encoding="utf-8"?>

<!-- License Agreement at http://iconmonstr.com/license/ -->

<!DOCTYPE svg PUBLIC "-//W3C//DTD SVG 1.1//EN" "http://www.w3.org/Graphics/SVG/1.1/DTD/svg11.dtd">
<svg version="1.1" xmlns="http://www.w3.org/2000/svg" xmlns:xlink="http://www.w3.org/1999/xlink" x="0px" y="0px"
	 width="512px" height="512px" viewBox="0 0 512 512" enable-background="new 0 0 512 512" xml:space="preserve">
<path id="tools-4-icon" d="M158.055,249.342l160.08,160.081c13.483,13.481,35.338,13.479,48.82,0
	c13.481-13.482,13.481-35.338,0-48.821l-160.08-160.079c-7.697-7.696-11.661-18.401-10.821-29.252
	c1.59-20.558-5.474-41.66-21.197-57.383c-20.369-20.369-49.916-26.309-75.679-17.399l46.539,46.538
	c1.068,18.163-27.021,46.233-45.159,45.159L54.02,141.646c-8.864,25.632-3.067,55.21,17.398,75.678
	c14.28,14.28,32.994,21.416,51.71,21.416C128.284,238.74,144.289,235.577,158.055,249.342z M340.861,368.679
	c7.856,0,14.228,6.369,14.228,14.228s-6.371,14.229-14.228,14.229c-7.857,0-14.228-6.37-14.228-14.229
	S333.004,368.679,340.861,368.679z M219.444,115.329c0,0,88.328-43.474,146.982,0.69c33.279,25.059,28.81,47.442,43.819,62.451
	c13.8,13.801,30.706,2.416,30.706,2.416L462,201.933l-67.281,67.281l-21.047-21.047c0,0,9.086-12.995-1.727-23.806
	c-9.773-9.776-21.966-7.017-34.732,5.75c-7.13,7.129-30.984,30.985-30.984,30.985l-46.994-46.995l31.347-31.348
	C319.604,153.731,289.646,122.345,219.444,115.329z M218.553,348.385l-61.474,61.151c-12.963,12.964-33.979,12.964-46.94,0
	c-12.962-12.96-12.962-33.978,0-46.938l61.475-61.153L218.553,348.385z"/>
</svg>
